<svg aria-hidden="true" style="position: absolute; width: 0; height: 0; overflow: hidden;" version="1.1" xmlns="http://www.w3.org/2000/svg" xmlns:xlink="http://www.w3.org/1999/xlink">
<defs>
<symbol id="icon-call" viewBox="0 0 32 32">
<path d="M23.158 29c-2.185 0-7.498-2.7-11.958-8.495-4.172-5.42-6.2-9.336-6.2-11.97 0-2.075 1.483-3.064 2.28-3.597l0.197-0.133c0.88-0.608 2.249-0.805 2.774-0.805 0.92 0 1.308 0.52 1.543 0.973 0.2 0.384 1.853 3.812 2.020 4.238 0.257 0.656 0.173 1.611-0.622 2.16l-0.139 0.094c-0.395 0.264-1.128 0.755-1.23 1.352-0.049 0.29 0.051 0.594 0.307 0.927 1.279 1.665 5.365 6.556 6.101 7.22 0.577 0.521 1.308 0.595 1.806 0.189 0.515-0.419 0.744-0.667 0.746-0.67l0.053-0.050c0.043-0.035 0.446-0.344 1.104-0.344 0.475 0 0.957 0.158 1.435 0.47 1.239 0.808 4.033 2.615 4.033 2.615l0.045 0.033c0.358 0.296 0.875 1.149 0.271 2.259-0.625 1.152-2.562 3.531-4.565 3.531l0.001 0.003zM10.249 4.927c-0.454 0-1.569 0.185-2.217 0.632l-0.209 0.141c-0.743 0.497-1.866 1.246-1.866 2.835 0 2.429 1.967 6.164 6.011 11.418 4.417 5.739 9.467 8.122 11.188 8.122 1.464 0 3.143-1.976 3.717-3.034 0.352-0.65 0.064-1.016-0.036-1.115-0.323-0.209-2.844-1.838-4.003-2.595-0.316-0.207-0.618-0.311-0.898-0.311-0.254 0-0.422 0.087-0.478 0.122-0.093 0.096-0.351 0.352-0.808 0.723-0.855 0.696-2.155 0.611-3.078-0.221-0.83-0.748-5.020-5.788-6.217-7.345-0.413-0.538-0.576-1.087-0.484-1.63 0.168-0.984 1.119-1.62 1.63-1.963l0.128-0.086c0.457-0.315 0.36-0.886 0.284-1.079-0.141-0.36-1.774-3.753-1.98-4.152-0.169-0.327-0.302-0.463-0.687-0.463l0.002-0.001z"></path>
</symbol>
<symbol id="icon-mail" viewBox="0 0 32 32">
<path d="M28.244 7.47h-25.572v17.060h26.656v-17.060h-1.084zM27.177 8.536l-10.298 10.298c-0.47 0.47-1.289 0.47-1.759 0l-10.3-10.298h22.357zM3.738 8.961l6.923 6.922-6.923 6.923v-13.845zM4.589 23.464l6.827-6.826 2.951 2.95c0.436 0.436 1.016 0.677 1.633 0.677s1.197-0.241 1.633-0.677l2.951-2.951 6.826 6.826-22.821 0.001zM28.262 22.807l-6.923-6.924 6.923-6.924v13.848z"></path>
</symbol>
</defs>
</svg>
