<svg width="22" height="22" viewBox="0 0 22 22" fill="none" xmlns="http://www.w3.org/2000/svg">
<path d="M15.9213 19.9375C14.419 19.9375 10.7667 18.0814 7.70033 14.0971C4.83228 10.3706 3.4375 7.6788 3.4375 5.86751C3.4375 4.44129 4.45717 3.76071 5.0047 3.39476L5.14004 3.30341C5.74504 2.88552 6.68622 2.75 7.04712 2.75C7.67994 2.75 7.94629 3.1076 8.10758 3.41923C8.24477 3.6831 9.38124 6.04004 9.49618 6.33317C9.67292 6.7839 9.61483 7.44059 9.06854 7.81849L8.97275 7.88297C8.70146 8.06445 8.19719 8.40176 8.12735 8.81249C8.09337 9.01189 8.16258 9.22083 8.3387 9.45008C9.21809 10.5951 12.0268 13.9574 12.5329 14.4135C12.9297 14.7717 13.4321 14.8224 13.7745 14.5436C14.1286 14.2553 14.2861 14.0852 14.2874 14.0828L14.3238 14.0487C14.3535 14.0243 14.6304 13.8123 15.0827 13.8123C15.409 13.8123 15.7409 13.921 16.069 14.1353C16.9206 14.6911 18.8419 15.9329 18.8419 15.9329L18.8728 15.9555C19.1188 16.1591 19.4741 16.7454 19.0594 17.5083C18.6299 18.3005 17.2982 19.9357 15.9207 19.9357L15.9213 19.9375ZM7.04651 3.38759C6.73443 3.38759 5.96751 3.51475 5.52257 3.8222L5.37919 3.91892C4.86813 4.2604 4.09627 4.77561 4.09627 5.86811C4.09627 7.5379 5.44841 10.1056 8.2287 13.718C11.2655 17.6635 14.7373 19.3017 15.9207 19.3017C16.9274 19.3017 18.0818 17.9429 18.4761 17.2158C18.7183 16.7692 18.5199 16.5173 18.4513 16.4493C18.2289 16.3054 16.496 15.1854 15.6995 14.6654C15.4826 14.5233 15.2743 14.4517 15.0821 14.4517C14.9072 14.4517 14.7923 14.5114 14.7533 14.5353C14.6891 14.6016 14.5123 14.7771 14.1978 15.0326C13.6101 15.5108 12.7159 15.4529 12.0818 14.8809C11.5114 14.3663 8.63039 10.9014 7.80786 9.83096C7.52359 9.46083 7.41173 9.08353 7.47538 8.7104C7.59095 8.03401 8.24477 7.59641 8.59578 7.36119L8.68354 7.30209C8.99747 7.08538 8.93073 6.69316 8.87882 6.56062C8.7818 6.31347 7.65954 3.98041 7.51741 3.70639C7.40123 3.48192 7.30977 3.38819 7.04527 3.38819L7.04651 3.38759Z" fill="#202020"/>
</svg>
