<svg aria-hidden="true" style="position:absolute;width:0;height:0" xmlns="http://www.w3.org/2000/svg" overflow="hidden">
    <defs>
        <symbol id="icon-logo" viewBox="0 0 212 32">
            <path
                d="M103.68 6.796V0h-32v19.424h25.166v5.78H71.68V32h27.312l4.649-4.649-.013-14.723H78.539V6.797h25.14zM0 .051 32 0v32H0V.051zM6.888 19.35v5.721h5.706V19.35H6.888zm5.706-4.183v4.132h4.118v-4.132h-4.118zm-5.706-3.458H20.13v13.362h4.918l.013-18.168H6.888v4.806zM191.644 12.029v8.07h8.392v-8.07h-8.392zM179.2 0l33.28.013V27.28l-.013 4.72H179.2V0zm7.165 6.877V25.11h18.949V6.877h-18.949zM155.804 12.029v8.07h8.392v-8.07h-8.392zM143.36 0l33.28.013V27.28l-.013 4.72H143.36V0zm7.165 6.877V25.11h18.949V6.877h-18.949zM119.964 12.029v8.07h8.392v-8.07h-8.392zM107.52 0l33.28.013V27.28l-.013 4.72H107.52V0zm7.165 6.877V25.11h18.949V6.877h-18.949zM40.761 0H67.84v32h-6.887v-8.048H42.752V32h-6.887L35.84 4.895 40.761 0zm20.205 17.049V6.904H42.765v10.145h18.201z" />
        </symbol>
        <symbol id="icon-tel" viewBox="0 0 30 32">
            <path
                d="M22.971 31.889c-2.671 0-9.164-3.3-14.615-10.383C3.257 14.881.778 10.096.778 6.876c0-2.535 1.813-3.745 2.786-4.396l.241-.162c1.076-.743 2.749-.984 3.39-.984 1.125 0 1.599.636 1.885 1.19.244.469 2.264 4.659 2.469 5.18.314.801.211 1.969-.76 2.641l-.17.115c-.482.323-1.379.922-1.503 1.652-.06.354.063.726.376 1.133 1.563 2.036 6.557 8.013 7.456 8.824.705.637 1.599.727 2.207.231.63-.513.91-.815.912-.819l.065-.061c.053-.043.545-.42 1.349-.42.58 0 1.17.193 1.753.574 1.514.988 4.93 3.196 4.93 3.196l.055.04c.437.362 1.069 1.404.332 2.761-.764 1.408-3.131 4.315-5.58 4.315l.001.003zM7.194 2.467c-.555 0-1.918.226-2.709.773l-.255.172c-.909.607-2.281 1.523-2.281 3.465 0 2.969 2.404 7.533 7.347 13.955 5.399 7.014 11.571 9.927 13.675 9.927 1.79 0 3.842-2.416 4.543-3.708.431-.794.078-1.242-.044-1.363-.395-.256-3.476-2.247-4.892-3.171-.386-.253-.756-.38-1.098-.38a1.13 1.13 0 0 0-.585.149c-.114.118-.428.43-.988.884-1.045.85-2.635.747-3.762-.27-1.014-.915-6.136-7.075-7.598-8.978-.505-.658-.704-1.329-.591-1.992.205-1.202 1.368-1.98 1.992-2.399l.156-.105c.558-.385.439-1.083.347-1.318-.172-.439-2.168-4.587-2.42-5.074-.207-.399-.369-.566-.839-.566l.002-.001z" />
        </symbol>
        <!-- event icon -->
        <symbol id="icon-user" viewBox="0 0 28 32">
            <path
                d="M18.703 21.788c-1.149-.48-3.88-1.423-5.559-1.919-.143-.045-.166-.052-.166-.649 0-.493.203-.989.401-1.409a7.222 7.222 0 0 0 .558-1.912c.255-.296.601-.88.825-1.993.196-.981.104-1.338-.026-1.673-.013-.035-.028-.07-.038-.105-.049-.23.018-1.425.186-2.352.116-.636-.03-1.989-.905-3.108-.552-.707-1.609-1.576-3.54-1.696l-1.059.001c-1.898.12-2.957.988-3.509 1.695-.875 1.119-1.02 2.472-.905 3.108.169.928.236 2.123.187 2.348-.01.039-.025.074-.039.11-.129.335-.221.692-.025 1.673.222 1.113.569 1.697.825 1.993.09.688.344 1.456.558 1.912.157.334.23.788.23 1.431 0 .597-.023.604-.157.646-1.736.513-4.5 1.513-5.531 1.965-.817.351-1.016.98-1.016 1.548v2.623c0 .371.22 1.006 1.016 1.006H18.894c.795 0 1.016-.634 1.016-1.006v-2.623c0-.568-.392-1.262-1.208-1.613l.002-.001zm.153 4.192H1.048v-2.579c0-.318.092-.46.388-.587.993-.435 3.737-1.426 5.428-1.926.888-.282.888-1.07.888-1.646 0-.801-.106-1.397-.331-1.878a6.095 6.095 0 0 1-.468-1.601l-.041-.312-.206-.238c-.113-.13-.396-.538-.589-1.513-.153-.759-.085-.935-.031-1.076.031-.076.058-.152.081-.237l.01-.044c.105-.495-.037-1.962-.181-2.755-.067-.365.017-1.401.699-2.273.418-.534 1.228-1.19 2.719-1.293l.991-.001c1.218.083 2.143.518 2.749 1.294.681.872.765 1.909.699 2.275-.148.814-.287 2.257-.18 2.758l.008.039.011.038c.016.054.036.108.056.161l.009.026.001.002c.059.153.127.326-.024 1.087-.196.974-.479 1.384-.591 1.515l-.204.237-.042.31a6.123 6.123 0 0 1-.468 1.603c-.247.525-.499 1.157-.499 1.856 0 .577 0 1.367.917 1.655 1.639.485 4.34 1.416 5.442 1.877.418.179.573.493.573.649l-.006 2.579-.002-.002zM23.053 14.441v-4.185h-1.048v4.185h-4.182v1.049h4.182v4.185h1.048V15.49h4.181v-1.049h-4.181z" />
        </symbol>
        <symbol id="icon-id" viewBox="0 0 27 32">
            <path
                d="M16.71 12.328h7.309v1.049H16.71v-1.049zM16.709 18.623h7.31v1.049h-7.31v-1.049zM16.709 15.475h5.214v1.049h-5.214v-1.049z" />
            <path
                d="M15.665 6.034V2.887h-4.177v3.147H0v23.079h27.154V6.034H15.665zm10.444 1.049v2.098H15.666V7.083h10.443zM12.532 3.936h2.089v5.245h-2.089V3.936zM1.044 7.083h10.443v2.098H1.044V7.083zm0 20.981V10.231h25.065v17.833H1.044z" />
            <path
                d="M15.394 23.402c-.754-.315-2.534-.936-3.636-1.263-.094-.03-.108-.035-.108-.428 0-.324.132-.65.262-.927.139-.301.307-.806.366-1.259.167-.196.394-.58.543-1.313.127-.645.069-.881-.017-1.102l-.026-.069c-.033-.152.012-.938.122-1.549.076-.418-.019-1.309-.593-2.046-.362-.466-1.055-1.037-2.324-1.117l-.696.001c-1.245.079-1.94.651-2.302 1.116-.574.737-.67 1.628-.594 2.046.111.611.155 1.397.123 1.546-.006.026-.016.049-.026.072-.085.221-.145.456-.016 1.102.145.733.373 1.117.542 1.313.058.453.225.958.366 1.259.103.22.152.519.152.942 0 .393-.015.398-.103.426-1.139.338-2.954.996-3.63 1.293-.537.231-.667.646-.667 1.02v.453h1.044v-.453a.39.39 0 0 1 .002-.04.307.307 0 0 1 .039-.018c.642-.283 2.422-.927 3.527-1.255.831-.265.831-1.049.831-1.426 0-.581-.08-1.022-.251-1.389a3.69 3.69 0 0 1-.276-.946l-.041-.313-.205-.239c-.032-.036-.191-.244-.308-.833-.08-.397-.051-.471-.035-.514.028-.068.051-.135.073-.23.092-.424-.03-1.483-.115-1.955-.029-.155.012-.73.388-1.214.331-.425.84-.665 1.515-.713l.626-.001c.688.049 1.204.289 1.534.714.377.484.417 1.059.389 1.213-.086.472-.207 1.53-.116 1.957l.009.041.011.04c.014.046.03.09.052.149.017.044.046.117-.033.513-.118.59-.279.8-.311.836l-.203.237-.041.31a3.702 3.702 0 0 1-.276.949c-.169.36-.362.841-.362 1.375 0 .377 0 1.162.857 1.434 1.043.309 2.793.916 3.519 1.221.111.047.15.105.161.127v.424h1.044v-.453c0-.374-.258-.831-.793-1.063l.002-.001z" />
        </symbol>
        <symbol id="icon-look" viewBox="0 0 32 32">
            <path
                d="M16 6.404c-5.847 0-10.404 3.66-15.994 9.593 4.816 5.073 8.857 9.6 15.994 9.6s12.382-5.73 15.994-9.492c-3.697-4.407-8.943-9.7-15.994-9.7v-.001zm0 18.126c-6.336 0-10.16-3.929-14.524-8.532C6.668 10.584 10.796 7.471 16 7.471c6.161 0 10.975 4.443 14.558 8.591-3.523 3.674-8.293 8.469-14.558 8.469v-.001z" />
            <path
                d="M16 9.603c-3.528 0-6.398 2.87-6.398 6.397s2.87 6.397 6.398 6.397 6.398-2.87 6.398-6.397A6.405 6.405 0 0 0 16 9.603zm0 11.728c-2.939 0-5.331-2.391-5.331-5.331s2.392-5.331 5.331-5.331A5.337 5.337 0 0 1 21.331 16 5.338 5.338 0 0 1 16 21.331z" />
            <path
                d="M16 12.268c-2.058 0-3.732 1.674-3.732 3.732s1.674 3.732 3.732 3.732c2.058 0 3.732-1.674 3.732-3.732S18.058 12.268 16 12.268zm0 6.398c-1.47 0-2.666-1.196-2.666-2.666S14.53 13.334 16 13.334 18.666 14.53 18.666 16 17.47 18.666 16 18.666z" />
        </symbol>
        <symbol id="icon-mail" viewBox="0 0 32 32">
            <path
                d="M29.229 13.342 17.634 1.747c-.436-.436-1.016-.677-1.633-.677s-1.197.24-1.633.677L11.84 4.275H8.005v3.834L2.673 13.44v17.491h26.656V13.442l-.1-.1zm-1.104.405-4.129 4.129V9.619l4.129 4.128zM15.121 2.5c.47-.47 1.289-.47 1.759 0l1.774 1.774h-5.307L15.121 2.5zm4.598 2.84 3.211 3.212v10.39l-2.469 2.469-2.829-2.829c-.436-.436-1.016-.677-1.633-.677s-1.197.241-1.633.677l-2.871 2.87-2.426-2.426V5.341l10.65-.001zM4.38 13.24l3.624-3.624v8.343l-4.172-4.172.548-.548v.001zm-.642 2.818v-.856l7.003 7.003-.079.08-.001-.001-6.923 6.923V16.058zm.851 13.806.573-.573h.002l9.957-9.956c.47-.47 1.289-.47 1.759 0l10.531 10.529H4.589zM28.262 15.36v13.848l-7.046-7.043 7.046-7.046v.241z" />
            <path
                d="M12.268 8.539h7.464v1.066h-7.464V8.539zM12.268 14.937h7.464v1.066h-7.464v-1.066zM12.268 11.738h5.331v1.066h-5.331v-1.066z" />
        </symbol>
        <symbol id="icon-note" viewBox="0 0 25 32">
            <path
                d="M6.284 14.164h12.568v1.049H6.284v-1.049zM6.284 18.36h12.568v1.049H6.284V18.36zM6.284 22.557h8.379v1.049H6.284v-1.049z" />
            <path
                d="M15.663 3.674c-.25-1.488-1.539-2.623-3.095-2.623S9.723 2.186 9.473 3.674H-.001v27.275h25.136V3.674h-9.472zm-5.19 2.408V4.198c0-1.157.94-2.098 2.095-2.098s2.095.941 2.095 2.098v1.884l.53.302a5.325 5.325 0 0 1 2.269 2.535H7.675a5.325 5.325 0 0 1 2.269-2.535l.529-.302zM24.089 29.9H1.048V4.723h8.379v.749a6.397 6.397 0 0 0-3.142 4.496h12.568a6.393 6.393 0 0 0-3.142-4.496v-.749h8.379V29.9z" />
        </symbol>
        <symbol id="icon-piggy" viewBox="0 0 30 32">
            <path
                d="M27.861 14.933h-.589c-.802-2.08-2.406-3.84-4.545-5.12 0-2.827.268-3.467.855-5.28-2.193.32-4.385 1.653-5.508 3.573-.749-.16-1.497-.213-2.246-.267.107-.427.214-.907.214-1.44 0-2.667-2.139-4.8-4.813-4.8s-4.813 2.133-4.813 4.8c0 1.333.534 2.507 1.444 3.413-2.086 1.227-3.69 2.933-4.545 4.96-1.444-.533-2.246-1.333-2.246-2.347 0-1.12.909-2.133 1.712-2.4L2.46 9.012C1.123 9.385 0 10.879 0 12.319c0 .853.374 2.453 2.941 3.413-.214.693-.268 1.387-.268 2.133 0 2.667 1.337 5.12 3.476 6.933l-.642 1.867c-.428 1.28.214 2.613 1.497 3.04l1.497.533c.268.107.534.16.802.16 1.016 0 1.925-.64 2.299-1.6l.428-1.227c1.07.213 2.139.373 3.316.373.749 0 1.497-.053 2.193-.16l.642 1.333c.428.853 1.283 1.333 2.193 1.333.374 0 .695-.053 1.07-.267l1.391-.693c1.176-.587 1.712-2.027 1.123-3.2l-.374-.8a10.396 10.396 0 0 0 3.369-3.627h1.07a2.62 2.62 0 0 0 2.62-2.613v-1.707c-.16-1.44-1.337-2.613-2.78-2.613l-.002.003zM7.487 6.4c0-2.08 1.657-3.733 3.743-3.733S14.973 4.32 14.973 6.4c0 .533-.107 1.013-.321 1.493A14.624 14.624 0 0 0 8.824 9.28c-.802-.693-1.337-1.707-1.337-2.88zm21.924 12.853A1.55 1.55 0 0 1 27.86 20.8h-1.712l-.321.533c-.695 1.227-1.712 2.347-2.995 3.253l-.749.533.428.8.374.8c.321.64.053 1.493-.642 1.813l-1.391.64c-.16.107-.374.16-.589.16-.534 0-.963-.267-1.23-.747l-.642-1.333-.321-.693-.802.107c-.695.107-1.391.16-2.032.16a15.33 15.33 0 0 1-3.101-.32l-.909-.213-.268.907-.428 1.227c-.214.533-.695.907-1.283.907-.16 0-.321 0-.428-.053l-1.497-.533c-.695-.267-1.07-1.013-.802-1.707l.642-1.92.268-.693-.589-.48c-2.032-1.653-3.101-3.787-3.101-6.08 0-4.907 5.187-8.96 11.498-8.96.855 0 1.765.107 2.62.213l.749.16.374-.64c.642-1.12 1.765-2.027 2.995-2.56-.214.907-.321 1.92-.374 3.733v.587l.534.32c1.925 1.173 3.422 2.773 4.118 4.587l.268.693h1.337a1.55 1.55 0 0 1 1.551 1.547v1.707l.002-.002z" />
            <path
                d="M23.53 15.733c0 .736-.599 1.333-1.337 1.333s-1.337-.597-1.337-1.333.599-1.333 1.337-1.333 1.337.597 1.337 1.333z" />
        </symbol>
        <!-- footer icon -->
        <symbol id="icon-call" viewBox="0 0 32 32">
            <path
                d="M23.158 29c-2.185 0-7.498-2.7-11.958-8.495C7.028 15.085 5 11.169 5 8.535 5 6.46 6.483 5.471 7.28 4.938l.197-.133C8.357 4.197 9.726 4 10.251 4c.92 0 1.308.52 1.543.973.2.384 1.853 3.812 2.02 4.238.257.656.173 1.611-.622 2.16l-.139.094c-.395.264-1.128.755-1.23 1.352-.049.29.051.594.307.927 1.279 1.665 5.365 6.556 6.101 7.22.577.521 1.308.595 1.806.189.515-.419.744-.667.746-.67l.053-.05c.043-.035.446-.344 1.104-.344.475 0 .957.158 1.435.47 1.239.808 4.033 2.615 4.033 2.615l.045.033c.358.296.875 1.149.271 2.259-.625 1.152-2.562 3.531-4.565 3.531l.001.003zM10.249 4.927c-.454 0-1.569.185-2.217.632l-.209.141c-.743.497-1.866 1.246-1.866 2.835 0 2.429 1.967 6.164 6.011 11.418 4.417 5.739 9.467 8.122 11.188 8.122 1.464 0 3.143-1.976 3.717-3.034.352-.65.064-1.016-.036-1.115-.323-.209-2.844-1.838-4.003-2.595-.316-.207-.618-.311-.898-.311a.921.921 0 0 0-.478.122 9.353 9.353 0 0 1-.808.723c-.855.696-2.155.611-3.078-.221-.83-.748-5.02-5.788-6.217-7.345-.413-.538-.576-1.087-.484-1.63.168-.984 1.119-1.62 1.63-1.963l.128-.086c.457-.315.36-.886.284-1.079-.141-.36-1.774-3.753-1.98-4.152-.169-.327-.302-.463-.687-.463l.002-.001z" />
        </symbol>
        <symbol id="icon-email" viewBox="0 0 32 32">
            <path
                d="M28.244 7.47H2.672v17.06h26.656V7.47h-1.084zm-1.067 1.066L16.879 18.834c-.47.47-1.289.47-1.759 0L4.82 8.536h22.357zm-23.439.425 6.923 6.922-6.923 6.923V8.961zm.851 14.503 6.827-6.826 2.951 2.95c.436.436 1.016.677 1.633.677s1.197-.241 1.633-.677l2.951-2.951 6.826 6.826-22.821.001zm23.673-.657-6.923-6.924 6.923-6.924v13.848z" />
        </symbol>
    </defs>
</svg>