<svg width="166" height="25" viewBox="0 0 166 25" fill="none" xmlns="http://www.w3.org/2000/svg">
<path fill-rule="evenodd" clip-rule="evenodd" d="M81 5.30964V0H56V15.1747H75.6606V19.6903H56V25H77.3378L80.9702 21.3676L80.9603 9.86503H61.3593V5.30964H81Z" fill="#202020"/>
<path fill-rule="evenodd" clip-rule="evenodd" d="M0 0.0397232L25 0V25H0V0.0397232ZM5.38127 15.1172V19.5868H9.83916V15.1172H5.38127ZM9.83916 11.8494V15.0775H13.056V11.8494H9.83916ZM5.38127 9.14779H15.7268V19.5868H19.5691L19.579 5.39332H5.38127V9.14779Z" fill="#202020"/>
<path fill-rule="evenodd" clip-rule="evenodd" d="M149.722 9.3973H156.278V15.7018H149.722V9.3973ZM140 0V25H165.99L166 21.3125V0.00990732H140V0ZM145.598 5.37272V19.6174H160.402V5.37272H145.598Z" fill="#202020"/>
<path fill-rule="evenodd" clip-rule="evenodd" d="M121.722 9.3973H128.278V15.7018H121.722V9.3973ZM112 0V25H137.99L138 21.3125V0.00990732H112V0ZM117.598 5.37272V19.6174H132.402V5.37272H117.598Z" fill="#202020"/>
<path fill-rule="evenodd" clip-rule="evenodd" d="M93.7216 9.3973H100.278V15.7018H93.7216V9.3973ZM84 0V25H109.99L110 21.3125V0.00990732H84V0ZM89.5979 5.37272V19.6174H104.402V5.37272H89.5979Z" fill="#202020"/>
<path fill-rule="evenodd" clip-rule="evenodd" d="M31.8446 0H53V25H47.6195V18.7128H33.4003V25H28.0198L28 3.824L31.8446 0ZM47.6294 13.3194V5.39333H33.4102V13.3194H47.6294Z" fill="#202020"/>
</svg>
