<svg width="22" height="22" viewBox="0 0 22 22" fill="none" xmlns="http://www.w3.org/2000/svg">
<path d="M19.4177 5.13574H1.83691V16.8645H20.1629V5.13574H19.4177ZM18.6841 5.86862L11.6042 12.9485C11.2811 13.2716 10.718 13.2716 10.3949 12.9485L3.31366 5.86862H18.6834H18.6841ZM2.56979 6.16081L7.32935 10.9197L2.56979 15.6792V6.16012V6.16081ZM3.15485 16.1316L7.84841 11.4387L9.87723 13.4669C10.177 13.7666 10.5757 13.9323 10.9999 13.9323C11.4241 13.9323 11.8229 13.7666 12.1226 13.4669L14.1514 11.4381L18.8443 16.1309H3.15416L3.15485 16.1316ZM19.43 15.6799L14.6705 10.9197L19.43 6.15943V15.6799Z" fill="#202020"/>
</svg>
