<svg width="17" height="18" viewBox="0 0 17 18" fill="none" xmlns="http://www.w3.org/2000/svg">
<path d="M12.9213 17.9375C11.419 17.9375 7.76675 16.0814 4.70033 12.0971C1.83228 8.37065 0.4375 5.6788 0.4375 3.86751C0.4375 2.44129 1.45717 1.76071 2.0047 1.39476L2.14004 1.30341C2.74504 0.885518 3.68622 0.75 4.04712 0.75C4.67994 0.75 4.94629 1.1076 5.10758 1.41923C5.24477 1.6831 6.38124 4.04004 6.49618 4.33317C6.67292 4.7839 6.61483 5.44059 6.06854 5.81849L5.97275 5.88297C5.70146 6.06445 5.19719 6.40176 5.12735 6.81249C5.09337 7.01189 5.16258 7.22083 5.3387 7.45008C6.21809 8.59512 9.02681 11.9574 9.53294 12.4135C9.92968 12.7717 10.4321 12.8224 10.7745 12.5436C11.1286 12.2553 11.2861 12.0852 11.2874 12.0828L11.3238 12.0487C11.3535 12.0243 11.6304 11.8123 12.0827 11.8123C12.409 11.8123 12.7409 11.921 13.069 12.1353C13.9206 12.6911 15.8419 13.9329 15.8419 13.9329L15.8728 13.9555C16.1188 14.1591 16.4741 14.7454 16.0594 15.5083C15.6299 16.3005 14.2982 17.9357 12.9207 17.9357L12.9213 17.9375ZM4.04651 1.38759C3.73443 1.38759 2.96751 1.51475 2.52257 1.8222L2.37919 1.91892C1.86813 2.2604 1.09627 2.77561 1.09627 3.86811C1.09627 5.5379 2.44841 8.10558 5.2287 11.718C8.26546 15.6635 11.7373 17.3017 12.9207 17.3017C13.9274 17.3017 15.0818 15.9429 15.4761 15.2158C15.7183 14.7692 15.5199 14.5173 15.4513 14.4493C15.2289 14.3054 13.496 13.1854 12.6995 12.6654C12.4826 12.5233 12.2743 12.4517 12.0821 12.4517C11.9072 12.4517 11.7923 12.5114 11.7533 12.5353C11.6891 12.6016 11.5123 12.7771 11.1978 13.0326C10.6101 13.5108 9.71586 13.4529 9.08181 12.8809C8.51142 12.3663 5.63039 8.90138 4.80786 7.83096C4.52359 7.46083 4.41173 7.08353 4.47538 6.7104C4.59095 6.03401 5.24477 5.59641 5.59578 5.36119L5.68354 5.30209C5.99747 5.08538 5.93073 4.69316 5.87882 4.56062C5.7818 4.31347 4.65954 1.98041 4.51741 1.70639C4.40123 1.48192 4.30977 1.38819 4.04527 1.38819L4.04651 1.38759Z" fill="#202020"/>
</svg>
