<svg width="43" height="50" viewBox="0 0 43 50" fill="none" xmlns="http://www.w3.org/2000/svg">
<g clip-path="url(#clip0_63_4621)">
<path d="M29.2237 34.0437C27.4287 33.2937 23.1614 31.8203 20.5376 31.0453C20.3144 30.975 20.2785 30.9641 20.2785 30.0312C20.2785 29.2609 20.5953 28.4859 20.9044 27.8297C21.2384 27.1172 21.6348 25.9172 21.7769 24.8422C22.1749 24.3797 22.7165 23.4672 23.0661 21.7281C23.3721 20.1953 23.2285 19.6375 23.0256 19.1141C23.0053 19.0594 22.9819 19.0047 22.9662 18.95C22.8898 18.5906 22.9943 16.7234 23.2566 15.275C23.4376 14.2812 23.2097 12.1672 21.8424 10.4187C20.9793 9.31405 19.3279 7.95624 16.3108 7.76874L14.6563 7.7703C11.6907 7.9578 10.0362 9.31405 9.17304 10.4187C7.80574 12.1672 7.57942 14.2812 7.75892 15.275C8.0227 16.725 8.12728 18.5922 8.0508 18.9437C8.03519 19.0047 8.01177 19.0594 7.98992 19.1156C7.78857 19.6391 7.64498 20.1969 7.9509 21.7297C8.29741 23.4687 8.84058 24.3812 9.24016 24.8437C9.38064 25.9187 9.77709 27.1187 10.1127 27.8312C10.3577 28.3531 10.4717 29.0625 10.4717 30.0672C10.4717 31 10.4358 31.0109 10.2266 31.0766C7.51386 31.8781 3.195 33.4406 1.58421 34.1469C0.307435 34.6953 -0.00317383 35.6781 -0.00317383 36.5656C-0.00317383 37.4531 -0.00317383 40.0828 -0.00317383 40.6641C-0.00317383 41.2437 0.340212 42.2359 1.58421 42.2359C2.54101 42.2359 10.197 42.2359 13.6745 42.2359C14.7172 42.2359 15.3883 42.2359 15.3883 42.2359H15.688C15.688 42.2359 16.3701 42.2359 17.4284 42.2359C20.92 42.2359 28.565 42.2359 29.5202 42.2359C30.7627 42.2359 31.1076 41.2453 31.1076 40.6641C31.1076 40.0828 31.1076 37.4531 31.1076 36.5656C31.1076 35.6781 30.4958 34.5937 29.2206 34.0453L29.2237 34.0437ZM29.4625 40.5937H1.63728V36.5641C1.63728 36.0672 1.78087 35.8453 2.24288 35.6469C3.79437 34.9672 8.08201 33.4187 10.7245 32.6375C12.1121 32.1969 12.1121 30.9656 12.1121 30.0656C12.1121 28.8141 11.9467 27.8828 11.5955 27.1312C11.327 26.5594 10.9836 25.5344 10.865 24.6297L10.801 24.1422L10.4795 23.7703C10.3031 23.5672 9.86138 22.9297 9.55857 21.4062C9.31976 20.2203 9.4259 19.9453 9.51019 19.725C9.55857 19.6062 9.60072 19.4875 9.63662 19.3547L9.64442 19.3203L9.65222 19.2859C9.81611 18.5125 9.59447 16.2203 9.36971 14.9812C9.26513 14.4109 9.39625 12.7922 10.4623 11.4297C11.1147 10.5953 12.3806 9.5703 14.7109 9.40936L16.2593 9.4078C18.162 9.53749 19.6073 10.2172 20.5547 11.4297C21.6192 12.7922 21.7503 14.4125 21.6473 14.9844C21.4163 16.2562 21.1994 18.5109 21.3664 19.2937L21.3789 19.3547L21.396 19.4141C21.421 19.4984 21.4522 19.5828 21.4834 19.6656L21.4975 19.7062L21.4991 19.7094C21.5911 19.9484 21.6973 20.2187 21.4616 21.4078C21.1557 22.9297 20.7139 23.5703 20.5376 23.775L20.2192 24.1453L20.1536 24.6297C20.035 25.5328 19.6916 26.5625 19.4231 27.1344C19.0376 27.9547 18.6427 28.9422 18.6427 30.0344C18.6427 30.9359 18.6427 32.1703 20.0756 32.6203C22.6369 33.3781 26.8574 34.8328 28.5791 35.5531C29.2315 35.8328 29.475 36.3234 29.475 36.5672L29.4656 40.5969L29.4625 40.5937Z" fill="#D50032"/>
<path d="M36.0211 22.5641V16.025H34.3838V22.5641H27.8501V24.2031H34.3838V30.7422H36.0211V24.2031H42.5533V22.5641H36.0211Z" fill="#D50032"/>
</g>
<defs>
<clipPath id="clip0_63_4621">
<rect width="42.1429" height="50" fill="white"/>
</clipPath>
</defs>
</svg>
