<svg width="42" height="50" viewBox="0 0 42 50" fill="none" xmlns="http://www.w3.org/2000/svg">
<g clip-path="url(#clip0_63_4982)">
<path d="M26.1101 19.2625H37.531V20.9015H26.1101V19.2625Z" fill="#D50032"/>
<path d="M26.1084 29.0984H37.5308V30.7375H26.1084V29.0984Z" fill="#D50032"/>
<path d="M26.1084 24.1797H34.2548V25.8187H26.1084V24.1797V24.1797Z" fill="#D50032"/>
<path d="M24.4767 9.42817V4.51099H17.9496V9.42817H0V45.4891H42.4278V9.42817H24.4782H24.4767ZM40.796 11.0672V14.3454H24.4782V11.0672H40.796V11.0672ZM19.5813 6.15005H22.8449V14.3454H19.5813V6.15005V6.15005ZM1.63178 11.0672H17.9496V14.3454H1.63178V11.0672V11.0672ZM1.63178 43.85V15.986H40.796V43.85H1.63178V43.85Z" fill="#D50032"/>
<path d="M24.0535 36.5656C22.876 36.0734 20.0947 35.1031 18.3727 34.5922C18.2264 34.5453 18.2047 34.5375 18.2047 33.9234C18.2047 33.4172 18.4115 32.9078 18.6138 32.475C18.8315 32.0047 19.0929 31.2156 19.1862 30.5078C19.4475 30.2015 19.8022 29.6015 20.034 28.4562C20.2331 27.4484 20.1413 27.0797 20.0075 26.7344C19.9935 26.6984 19.9795 26.6625 19.9671 26.6265C19.9158 26.389 19.9858 25.1609 20.1584 24.2062C20.2767 23.5531 20.1289 22.1609 19.2313 21.0094C18.6651 20.2812 17.5824 19.389 15.6007 19.264L14.5133 19.2656C12.5673 19.389 11.4815 20.2828 10.9169 21.0094C10.0193 22.1609 9.86999 23.5531 9.98822 24.2062C10.1624 25.1609 10.2309 26.389 10.1811 26.6219C10.1718 26.6625 10.1562 26.6984 10.1407 26.7344C10.0084 27.0797 9.91355 27.4468 10.1158 28.4562C10.3429 29.6015 10.6991 30.2015 10.962 30.5078C11.0522 31.2156 11.3135 32.0047 11.5344 32.475C11.6947 32.8187 11.7724 33.2859 11.7724 33.9468C11.7724 34.5609 11.7491 34.5687 11.6122 34.6125C9.83266 35.1406 6.99688 36.1687 5.94066 36.6328C5.10222 36.9937 4.89844 37.6422 4.89844 38.2265C4.89844 38.3906 4.89844 38.6453 4.89844 38.9343H6.53022V38.2265C6.53022 38.2 6.53177 38.1797 6.53333 38.164C6.54733 38.1562 6.56599 38.1468 6.59399 38.1359C7.59733 37.6937 10.3787 36.6875 12.1053 36.175C13.4042 35.7609 13.4042 34.5359 13.4042 33.9468C13.4042 33.039 13.2798 32.35 13.0122 31.7765C12.8489 31.4265 12.6467 30.8062 12.5813 30.2984L12.5175 29.8093L12.1971 29.4359C12.1473 29.3797 11.8984 29.0547 11.7164 28.1344C11.592 27.514 11.6371 27.3984 11.662 27.3312C11.7055 27.225 11.7413 27.1203 11.7755 26.9718C11.9187 26.3093 11.7289 24.6547 11.5951 23.9172C11.55 23.675 11.6138 22.7765 12.2018 22.0203C12.7182 21.3562 13.5147 20.9812 14.5693 20.9062L15.5478 20.9047C16.6227 20.9812 17.4284 21.3562 17.9449 22.0203C18.5344 22.7765 18.5967 23.675 18.5531 23.9156C18.4193 24.6531 18.2295 26.3062 18.3711 26.9734L18.3851 27.0375L18.4022 27.1C18.424 27.1718 18.4489 27.2406 18.4831 27.3328C18.5095 27.4015 18.5547 27.5156 18.4318 28.1344C18.2467 29.0562 17.9962 29.3843 17.9464 29.4406L17.6291 29.8109L17.5653 30.2953C17.4984 30.8047 17.2978 31.4281 17.1344 31.7781C16.87 32.3406 16.5682 33.0922 16.5682 33.9265C16.5682 34.5156 16.5682 35.7422 17.9075 36.1672C19.5378 36.65 22.2709 37.5984 23.4064 38.075C23.5791 38.1484 23.6413 38.239 23.6584 38.2734V38.9359H25.2902C25.2902 38.6484 25.2902 38.3922 25.2902 38.2281C25.2902 37.6437 24.8873 36.9297 24.0504 36.5672L24.0535 36.5656Z" fill="#D50032"/>
</g>
<defs>
<clipPath id="clip0_63_4982">
<rect width="42" height="50" fill="white"/>
</clipPath>
</defs>
</svg>
