<svg width="50" height="50" viewBox="0 0 50 50" fill="none" xmlns="http://www.w3.org/2000/svg">
<path d="M24.9999 10.0062C15.864 10.0062 8.74365 15.725 0.00927734 24.9953C7.53428 32.9219 13.8483 39.9953 24.9999 39.9953C36.1515 39.9953 44.3468 31.0422 49.9905 25.164C44.214 18.2781 36.0171 10.0078 24.9999 10.0078V10.0062ZM24.9999 38.3281C15.0999 38.3281 9.1249 32.189 2.30615 24.9969C10.4187 16.5375 16.8687 11.6734 24.9999 11.6734C34.6265 11.6734 42.1483 18.6156 47.7468 25.0969C42.2421 30.8375 34.789 38.3297 24.9999 38.3297V38.3281Z" fill="#D50032"/>
<path d="M25 15.0046C19.4875 15.0046 15.0032 19.489 15.0032 25C15.0032 30.5109 19.4875 34.9953 25 34.9953C30.5125 34.9953 34.9969 30.5109 34.9969 25C34.9969 19.489 30.5125 15.0046 25 15.0046V15.0046ZM25 33.3296C20.4079 33.3296 16.6704 29.5937 16.6704 25C16.6704 20.4062 20.4079 16.6703 25 16.6703C29.5922 16.6703 33.3297 20.4062 33.3297 25C33.3297 29.5921 29.5922 33.3296 25 33.3296Z" fill="#D50032"/>
<path d="M25 19.1687C21.7843 19.1687 19.1687 21.7843 19.1687 25C19.1687 28.2156 21.7843 30.8312 25 30.8312C28.2156 30.8312 30.8312 28.2156 30.8312 25C30.8312 21.7843 28.2156 19.1687 25 19.1687ZM25 29.1656C22.7031 29.1656 20.8343 27.2968 20.8343 25C20.8343 22.7031 22.7031 20.8343 25 20.8343C27.2968 20.8343 29.1656 22.7031 29.1656 25C29.1656 27.2968 27.2968 29.1656 25 29.1656Z" fill="#D50032"/>
</svg>
