<svg width="50" height="50" viewBox="0 0 50 50" fill="none" xmlns="http://www.w3.org/2000/svg">
<path d="M45.6703 20.8469L27.5531 2.72969C26.8718 2.04844 25.9656 1.67188 25.0015 1.67188C24.0374 1.67188 23.1312 2.04687 22.45 2.72969L18.5 6.67969H12.5078V12.6703L4.17651 21V48.3297H45.8265V21.0031L45.6718 20.8484L45.6703 20.8469ZM43.9453 21.4797L37.4937 27.9312V15.0297L43.9453 21.4813V21.4797ZM23.6265 3.90625C24.3609 3.17187 25.6406 3.17187 26.3749 3.90625L29.1468 6.67812H20.8546L23.6265 3.90625V3.90625ZM30.8109 8.34375L35.8281 13.3625V29.5969L31.9703 33.4547L27.55 29.0344C26.8687 28.3531 25.9624 27.9766 24.9984 27.9766C24.0343 27.9766 23.1281 28.3531 22.4468 29.0344L17.9609 33.5187L14.1703 29.7281V8.34531H30.8093L30.8109 8.34375ZM6.8437 20.6875L12.5062 15.025V28.0609L5.98745 21.5422L6.8437 20.6859V20.6875ZM5.84058 25.0906V23.7531L16.7828 34.6953L16.6593 34.8203L16.6578 34.8188L5.84058 45.6359V25.0906V25.0906ZM7.17026 46.6625L8.06558 45.7672H8.0687L23.6265 30.2109C24.3609 29.4766 25.6406 29.4766 26.3749 30.2109L42.8296 46.6625H7.17026V46.6625ZM44.1593 24V45.6375L33.15 34.6328L44.1593 23.6234V24.0016V24Z" fill="#D50032"/>
<path d="M19.1687 13.3422H30.8312V15.0078H19.1687V13.3422V13.3422Z" fill="#D50032"/>
<path d="M19.1687 23.3391H30.8312V25.0047H19.1687V23.3391V23.3391Z" fill="#D50032"/>
<path d="M19.1687 18.3406H27.4984V20.0063H19.1687V18.3406Z" fill="#D50032"/>
</svg>
