<svg width="39" height="50" viewBox="0 0 39 50" fill="none" xmlns="http://www.w3.org/2000/svg">
<g clip-path="url(#clip0_63_5157)">
<path d="M9.8186 22.1312H29.4559V23.7703H9.8186V22.1312V22.1312Z" fill="#D50032"/>
<path d="M9.8186 28.6875H29.4559V30.3266H9.8186V28.6875V28.6875Z" fill="#D50032"/>
<path d="M9.8186 35.2454H22.9101V36.8844H9.8186V35.2454V35.2454Z" fill="#D50032"/>
<path d="M24.4734 5.74065C24.0834 3.41565 22.0694 1.64221 19.6374 1.64221C17.2053 1.64221 15.1914 3.41565 14.8014 5.74065H-0.00146484V48.3578H39.2731V5.74065H24.4718H24.4734ZM16.3645 9.50315V6.5594C16.3645 4.75159 17.8325 3.28127 19.6374 3.28127C21.4423 3.28127 22.9103 4.75159 22.9103 6.5594V9.50315L23.7386 9.97502C25.3454 10.8906 26.5778 12.2828 27.2845 13.936H11.9918C12.6985 12.2828 13.9309 10.8906 15.5377 9.97502L16.3645 9.50315V9.50315ZM37.6398 46.7188H1.6381V7.37971H14.7296V8.55002C12.1743 10.0063 10.3242 12.5594 9.8203 15.575H29.4576C28.9553 12.5594 27.1035 10.0078 24.5483 8.55002V7.37971H37.6398V46.7188Z" fill="#D50032"/>
</g>
<defs>
<clipPath id="clip0_63_5157">
<rect width="39" height="50" fill="white"/>
</clipPath>
</defs>
</svg>
