<svg width="47" height="50" viewBox="0 0 47 50" fill="none" xmlns="http://www.w3.org/2000/svg">
<g clip-path="url(#clip0_63_5198)">
<path d="M43.5329 23.3328H42.6132C41.3599 20.0828 38.8532 17.3328 35.5115 15.3328C35.5115 10.9156 35.9298 9.9156 36.8479 7.08279C33.4216 7.58279 29.9969 9.6656 28.2422 12.6656C27.0719 12.4156 25.9032 12.3328 24.7329 12.2484C24.9005 11.5812 25.0666 10.8312 25.0666 9.99841C25.0666 5.83123 21.7249 2.49841 17.5466 2.49841C13.3683 2.49841 10.0266 5.83123 10.0266 9.99841C10.0266 12.0812 10.8616 13.9156 12.2826 15.3312C9.0239 17.2484 6.51723 19.914 5.18087 23.0812C2.92486 22.2484 1.67153 20.9984 1.67153 19.414C1.67153 17.664 3.0925 16.0812 4.34583 15.664L3.8445 14.0812C1.75613 14.664 0.00146484 16.9984 0.00146484 19.2484C0.00146484 20.5812 0.585832 23.0812 4.5965 24.5812C4.2628 25.664 4.1782 26.7484 4.1782 27.914C4.1782 32.0812 6.26656 35.914 9.60983 38.7469L8.60717 41.664C7.9382 43.664 8.94087 45.7468 10.9462 46.414L13.2852 47.2469C13.7035 47.414 14.1203 47.4969 14.5386 47.4969C16.1256 47.4969 17.5466 46.4969 18.1309 44.9969L18.7999 43.0797C20.4715 43.4125 22.1416 43.6625 23.9809 43.6625C25.1512 43.6625 26.3199 43.5797 27.4072 43.4125L28.4098 45.4953C29.0788 46.8281 30.4152 47.5781 31.8361 47.5781C32.4205 47.5781 32.9218 47.4953 33.5078 47.1609L35.6807 46.0781C37.5184 45.1609 38.355 42.9109 37.4354 41.0781L36.851 39.8281C39.107 38.3281 40.8617 36.4109 42.115 34.1609H43.7867C46.0427 34.1609 47.8804 32.3281 47.8804 30.0781V27.4109C47.6297 25.1609 45.792 23.3281 43.536 23.3281L43.5329 23.3328ZM11.6982 9.99998C11.6982 6.74998 14.2879 4.16716 17.5466 4.16716C20.8052 4.16716 23.3949 6.74998 23.3949 9.99998C23.3949 10.8328 23.2273 11.5828 22.8936 12.3328C19.5519 12.4156 16.4593 13.25 13.7866 14.5C12.5332 13.4172 11.6982 11.8328 11.6982 9.99998V9.99998ZM45.9549 30.0828C45.9549 31.4156 44.8692 32.5 43.5313 32.5H40.857L40.3557 33.3328C39.27 35.25 37.6814 37 35.676 38.4156L34.5057 39.2484L35.1747 40.4984L35.7591 41.7484C36.2604 42.7484 35.8421 44.0812 34.7564 44.5812L32.5834 45.5812C32.3328 45.7484 31.9991 45.8312 31.6638 45.8312C30.8288 45.8312 30.1598 45.414 29.7415 44.664L28.7388 42.5812L28.2375 41.4984L26.9842 41.6656C25.8985 41.8328 24.8112 41.9156 23.8085 41.9156C22.2215 41.9156 20.5499 41.7484 18.9628 41.4156L17.5419 41.0828L17.1236 42.5L16.4546 44.4172C16.1209 45.25 15.3689 45.8344 14.4493 45.8344C14.1986 45.8344 13.9479 45.8343 13.7803 45.7515L11.4413 44.9187C10.3556 44.5015 9.76963 43.3359 10.1879 42.2515L11.1906 39.2515L11.6089 38.1687L10.6893 37.4187C7.51363 34.8359 5.84357 31.5015 5.84357 27.9187C5.84357 20.2515 13.9479 13.9187 23.8085 13.9187C25.1449 13.9187 26.5659 14.0859 27.9022 14.2515L29.0725 14.5015L29.6569 13.5015C30.6596 11.7515 32.4142 10.3344 34.3365 9.50154C34.0028 10.9187 33.8352 12.5015 33.7522 15.3344V16.2515L34.5872 16.7515C37.5952 18.5844 39.9342 21.0843 41.0215 23.9187L41.4398 25.0015H43.5282C44.8645 25.0015 45.9518 26.0844 45.9518 27.4187V30.0859L45.9549 30.0828Z" fill="#D50032"/>
<path d="M36.7649 24.5828C36.7649 25.7328 35.8296 26.6656 34.6765 26.6656C33.5234 26.6656 32.5881 25.7328 32.5881 24.5828C32.5881 23.4328 33.5234 22.5 34.6765 22.5C35.8296 22.5 36.7649 23.4328 36.7649 24.5828V24.5828Z" fill="#D50032"/>
</g>
<defs>
<clipPath id="clip0_63_5198">
<rect width="47" height="50" fill="white"/>
</clipPath>
</defs>
</svg>
