<svg aria-hidden="true" style="position: absolute; width: 0; height: 0; overflow: hidden;" version="1.1" xmlns="http://www.w3.org/2000/svg" xmlns:xlink="http://www.w3.org/1999/xlink">
<defs>
<symbol id="icon-user" viewBox="0 0 28 32">
<path d="M18.703 21.788c-1.149-0.48-3.88-1.423-5.559-1.919-0.143-0.045-0.166-0.052-0.166-0.649 0-0.493 0.203-0.989 0.401-1.409 0.214-0.456 0.467-1.224 0.558-1.912 0.255-0.296 0.601-0.88 0.825-1.993 0.196-0.981 0.104-1.338-0.026-1.673-0.013-0.035-0.028-0.070-0.038-0.105-0.049-0.23 0.018-1.425 0.186-2.352 0.116-0.636-0.030-1.989-0.905-3.108-0.552-0.707-1.609-1.576-3.54-1.696l-1.059 0.001c-1.898 0.12-2.957 0.988-3.509 1.695-0.875 1.119-1.020 2.472-0.905 3.108 0.169 0.928 0.236 2.123 0.187 2.348-0.010 0.039-0.025 0.074-0.039 0.11-0.129 0.335-0.221 0.692-0.025 1.673 0.222 1.113 0.569 1.697 0.825 1.993 0.090 0.688 0.344 1.456 0.558 1.912 0.157 0.334 0.23 0.788 0.23 1.431 0 0.597-0.023 0.604-0.157 0.646-1.736 0.513-4.5 1.513-5.531 1.965-0.817 0.351-1.016 0.98-1.016 1.548s0 2.251 0 2.623c0 0.371 0.22 1.006 1.016 1.006 0.612 0 5.512 0 7.738 0 0.667 0 1.097 0 1.097 0h0.192c0 0 0.437 0 1.114 0 2.235 0 7.127 0 7.739 0 0.795 0 1.016-0.634 1.016-1.006s0-2.055 0-2.623-0.392-1.262-1.208-1.613l0.002-0.001zM18.856 25.98h-17.808v-2.579c0-0.318 0.092-0.46 0.388-0.587 0.993-0.435 3.737-1.426 5.428-1.926 0.888-0.282 0.888-1.070 0.888-1.646 0-0.801-0.106-1.397-0.331-1.878-0.172-0.366-0.392-1.022-0.468-1.601l-0.041-0.312-0.206-0.238c-0.113-0.13-0.396-0.538-0.589-1.513-0.153-0.759-0.085-0.935-0.031-1.076 0.031-0.076 0.058-0.152 0.081-0.237l0.010-0.044c0.105-0.495-0.037-1.962-0.181-2.755-0.067-0.365 0.017-1.401 0.699-2.273 0.418-0.534 1.228-1.19 2.719-1.293l0.991-0.001c1.218 0.083 2.143 0.518 2.749 1.294 0.681 0.872 0.765 1.909 0.699 2.275-0.148 0.814-0.287 2.257-0.18 2.758l0.008 0.039 0.011 0.038c0.016 0.054 0.036 0.108 0.056 0.161l0.009 0.026 0.001 0.002c0.059 0.153 0.127 0.326-0.024 1.087-0.196 0.974-0.479 1.384-0.591 1.515l-0.204 0.237-0.042 0.31c-0.076 0.578-0.296 1.237-0.468 1.603-0.247 0.525-0.499 1.157-0.499 1.856 0 0.577 0 1.367 0.917 1.655 1.639 0.485 4.34 1.416 5.442 1.877 0.418 0.179 0.573 0.493 0.573 0.649l-0.006 2.579-0.002-0.002z"></path>
<path d="M23.053 14.441v-4.185h-1.048v4.185h-4.182v1.049h4.182v4.185h1.048v-4.185h4.181v-1.049h-4.181z"></path>
</symbol>
<symbol id="icon-id" viewBox="0 0 27 32">
<path d="M16.71 12.328h7.309v1.049h-7.309v-1.049z"></path>
<path d="M16.709 18.623h7.31v1.049h-7.31v-1.049z"></path>
<path d="M16.709 15.475h5.214v1.049h-5.214v-1.049z"></path>
<path d="M15.665 6.034v-3.147h-4.177v3.147h-11.488v23.079h27.154v-23.079h-11.489zM26.109 7.083v2.098h-10.443v-2.098h10.443zM12.532 3.936h2.089v5.245h-2.089v-5.245zM1.044 7.083h10.443v2.098h-10.443v-2.098zM1.044 28.064v-17.833h25.065v17.833h-25.065z"></path>
<path d="M15.394 23.402c-0.754-0.315-2.534-0.936-3.636-1.263-0.094-0.030-0.108-0.035-0.108-0.428 0-0.324 0.132-0.65 0.262-0.927 0.139-0.301 0.307-0.806 0.366-1.259 0.167-0.196 0.394-0.58 0.543-1.313 0.127-0.645 0.069-0.881-0.017-1.102-0.009-0.023-0.018-0.046-0.026-0.069-0.033-0.152 0.012-0.938 0.122-1.549 0.076-0.418-0.019-1.309-0.593-2.046-0.362-0.466-1.055-1.037-2.324-1.117l-0.696 0.001c-1.245 0.079-1.94 0.651-2.302 1.116-0.574 0.737-0.67 1.628-0.594 2.046 0.111 0.611 0.155 1.397 0.123 1.546-0.006 0.026-0.016 0.049-0.026 0.072-0.085 0.221-0.145 0.456-0.016 1.102 0.145 0.733 0.373 1.117 0.542 1.313 0.058 0.453 0.225 0.958 0.366 1.259 0.103 0.22 0.152 0.519 0.152 0.942 0 0.393-0.015 0.398-0.103 0.426-1.139 0.338-2.954 0.996-3.63 1.293-0.537 0.231-0.667 0.646-0.667 1.020 0 0.105 0 0.268 0 0.453h1.044v-0.453c0-0.017 0.001-0.030 0.002-0.040 0.009-0.005 0.021-0.011 0.039-0.018 0.642-0.283 2.422-0.927 3.527-1.255 0.831-0.265 0.831-1.049 0.831-1.426 0-0.581-0.080-1.022-0.251-1.389-0.104-0.224-0.234-0.621-0.276-0.946l-0.041-0.313-0.205-0.239c-0.032-0.036-0.191-0.244-0.308-0.833-0.080-0.397-0.051-0.471-0.035-0.514 0.028-0.068 0.051-0.135 0.073-0.23 0.092-0.424-0.030-1.483-0.115-1.955-0.029-0.155 0.012-0.73 0.388-1.214 0.331-0.425 0.84-0.665 1.515-0.713l0.626-0.001c0.688 0.049 1.204 0.289 1.534 0.714 0.377 0.484 0.417 1.059 0.389 1.213-0.086 0.472-0.207 1.53-0.116 1.957l0.009 0.041 0.011 0.040c0.014 0.046 0.030 0.090 0.052 0.149 0.017 0.044 0.046 0.117-0.033 0.513-0.118 0.59-0.279 0.8-0.311 0.836l-0.203 0.237-0.041 0.31c-0.043 0.326-0.171 0.725-0.276 0.949-0.169 0.36-0.362 0.841-0.362 1.375 0 0.377 0 1.162 0.857 1.434 1.043 0.309 2.793 0.916 3.519 1.221 0.111 0.047 0.15 0.105 0.161 0.127v0.424h1.044c0-0.184 0-0.348 0-0.453 0-0.374-0.258-0.831-0.793-1.063l0.002-0.001z"></path>
</symbol>
<symbol id="icon-look" viewBox="0 0 32 32">
<path d="M16 6.404c-5.847 0-10.404 3.66-15.994 9.593 4.816 5.073 8.857 9.6 15.994 9.6s12.382-5.73 15.994-9.492c-3.697-4.407-8.943-9.7-15.994-9.7v-0.001zM16 24.53c-6.336 0-10.16-3.929-14.524-8.532 5.192-5.414 9.32-8.527 14.524-8.527 6.161 0 10.975 4.443 14.558 8.591-3.523 3.674-8.293 8.469-14.558 8.469v-0.001z"></path>
<path d="M16 9.603c-3.528 0-6.398 2.87-6.398 6.397s2.87 6.397 6.398 6.397 6.398-2.87 6.398-6.397c0-3.527-2.87-6.397-6.398-6.397v0zM16 21.331c-2.939 0-5.331-2.391-5.331-5.331s2.392-5.331 5.331-5.331c2.939 0 5.331 2.391 5.331 5.331 0 2.939-2.392 5.331-5.331 5.331z"></path>
<path d="M16 12.268c-2.058 0-3.732 1.674-3.732 3.732s1.674 3.732 3.732 3.732c2.058 0 3.732-1.674 3.732-3.732s-1.674-3.732-3.732-3.732zM16 18.666c-1.47 0-2.666-1.196-2.666-2.666s1.196-2.666 2.666-2.666c1.47 0 2.666 1.196 2.666 2.666s-1.196 2.666-2.666 2.666z"></path>
</symbol>
<symbol id="icon-mail" viewBox="0 0 32 32">
<path d="M29.229 13.342l-11.595-11.595c-0.436-0.436-1.016-0.677-1.633-0.677s-1.197 0.24-1.633 0.677l-2.528 2.528h-3.835v3.834l-5.332 5.331v17.491h26.656v-17.489l-0.1-0.1zM28.125 13.747l-4.129 4.129v-8.257l4.129 4.128zM15.121 2.5c0.47-0.47 1.289-0.47 1.759 0l1.774 1.774h-5.307l1.774-1.774zM19.719 5.34l3.211 3.212v10.39l-2.469 2.469-2.829-2.829c-0.436-0.436-1.016-0.677-1.633-0.677s-1.197 0.241-1.633 0.677l-2.871 2.87-2.426-2.426v-13.685l10.65-0.001zM4.38 13.24l3.624-3.624v8.343l-4.172-4.172 0.548-0.548v0.001zM3.738 16.058v-0.856l7.003 7.003-0.079 0.080-0.001-0.001-6.923 6.923v-13.149zM4.589 29.864l0.573-0.573h0.002l9.957-9.956c0.47-0.47 1.289-0.47 1.759 0l10.531 10.529h-22.822zM28.262 15.36v13.848l-7.046-7.043 7.046-7.046v0.241z"></path>
<path d="M12.268 8.539h7.464v1.066h-7.464v-1.066z"></path>
<path d="M12.268 14.937h7.464v1.066h-7.464v-1.066z"></path>
<path d="M12.268 11.738h5.331v1.066h-5.331v-1.066z"></path>
</symbol>
<symbol id="icon-note" viewBox="0 0 25 32">
<path d="M6.284 14.164h12.568v1.049h-12.568v-1.049z"></path>
<path d="M6.284 18.36h12.568v1.049h-12.568v-1.049z"></path>
<path d="M6.284 22.557h8.379v1.049h-8.379v-1.049z"></path>
<path d="M15.663 3.674c-0.25-1.488-1.539-2.623-3.095-2.623s-2.845 1.135-3.095 2.623h-9.474v27.275h25.136v-27.275h-9.472zM10.473 6.082v-1.884c0-1.157 0.94-2.098 2.095-2.098s2.095 0.941 2.095 2.098v1.884l0.53 0.302c1.028 0.586 1.817 1.477 2.269 2.535h-9.787c0.452-1.058 1.241-1.949 2.269-2.535l0.529-0.302zM24.089 29.9h-23.041v-25.177h8.379v0.749c-1.635 0.932-2.819 2.566-3.142 4.496h12.568c-0.321-1.93-1.507-3.563-3.142-4.496v-0.749h8.379v25.177z"></path>
</symbol>
<symbol id="icon-piggy" viewBox="0 0 30 32">
<path d="M27.861 14.933h-0.589c-0.802-2.080-2.406-3.84-4.545-5.12 0-2.827 0.268-3.467 0.855-5.28-2.193 0.32-4.385 1.653-5.508 3.573-0.749-0.16-1.497-0.213-2.246-0.267 0.107-0.427 0.214-0.907 0.214-1.44 0-2.667-2.139-4.8-4.813-4.8s-4.813 2.133-4.813 4.8c0 1.333 0.534 2.507 1.444 3.413-2.086 1.227-3.69 2.933-4.545 4.96-1.444-0.533-2.246-1.333-2.246-2.347 0-1.12 0.909-2.133 1.712-2.4l-0.321-1.013c-1.337 0.373-2.46 1.867-2.46 3.307 0 0.853 0.374 2.453 2.941 3.413-0.214 0.693-0.268 1.387-0.268 2.133 0 2.667 1.337 5.12 3.476 6.933l-0.642 1.867c-0.428 1.28 0.214 2.613 1.497 3.040l1.497 0.533c0.268 0.107 0.534 0.16 0.802 0.16 1.016 0 1.925-0.64 2.299-1.6l0.428-1.227c1.070 0.213 2.139 0.373 3.316 0.373 0.749 0 1.497-0.053 2.193-0.16l0.642 1.333c0.428 0.853 1.283 1.333 2.193 1.333 0.374 0 0.695-0.053 1.070-0.267l1.391-0.693c1.176-0.587 1.712-2.027 1.123-3.2l-0.374-0.8c1.444-0.96 2.567-2.187 3.369-3.627h1.070c1.444 0 2.62-1.173 2.62-2.613v-1.707c-0.16-1.44-1.337-2.613-2.78-2.613l-0.002 0.003zM7.487 6.4c0-2.080 1.657-3.733 3.743-3.733s3.743 1.653 3.743 3.733c0 0.533-0.107 1.013-0.321 1.493-2.139 0.053-4.118 0.587-5.828 1.387-0.802-0.693-1.337-1.707-1.337-2.88v0zM29.411 19.253c0 0.853-0.695 1.547-1.551 1.547h-1.712l-0.321 0.533c-0.695 1.227-1.712 2.347-2.995 3.253l-0.749 0.533 0.428 0.8 0.374 0.8c0.321 0.64 0.053 1.493-0.642 1.813l-1.391 0.64c-0.16 0.107-0.374 0.16-0.589 0.16-0.534 0-0.963-0.267-1.23-0.747l-0.642-1.333-0.321-0.693-0.802 0.107c-0.695 0.107-1.391 0.16-2.032 0.16-1.016 0-2.085-0.107-3.101-0.32l-0.909-0.213-0.268 0.907-0.428 1.227c-0.214 0.533-0.695 0.907-1.283 0.907-0.16 0-0.321-0-0.428-0.053l-1.497-0.533c-0.695-0.267-1.070-1.013-0.802-1.707l0.642-1.92 0.268-0.693-0.589-0.48c-2.032-1.653-3.101-3.787-3.101-6.080 0-4.907 5.187-8.96 11.498-8.96 0.855 0 1.765 0.107 2.62 0.213l0.749 0.16 0.374-0.64c0.642-1.12 1.765-2.027 2.995-2.56-0.214 0.907-0.321 1.92-0.374 3.733v0.587l0.534 0.32c1.925 1.173 3.422 2.773 4.118 4.587l0.268 0.693h1.337c0.855 0 1.551 0.693 1.551 1.547v1.707l0.002-0.002z"></path>
<path d="M23.53 15.733c0 0.736-0.599 1.333-1.337 1.333s-1.337-0.597-1.337-1.333c0-0.736 0.599-1.333 1.337-1.333s1.337 0.597 1.337 1.333v0z"></path>
</symbol>
</defs>
</svg>
